<svg xmlns="http://www.w3.org/2000/svg" viewBox="0 0 800 400" fill="none">
  <path d="M100,250 C100,200 150,200 180,220 C180,180 220,180 250,200 C270,170 320,170 350,200 C380,180 420,180 450,210 C480,190 520,190 550,220 C580,200 620,200 650,230 C680,210 720,210 750,240 C780,220 820,220 850,250 L850,350 L100,350 Z" fill="white" fill-opacity="0.8"/>
  <path d="M50,300 C50,270 80,270 100,280 C100,250 130,250 150,270 C170,250 200,250 220,270 C240,250 270,250 290,280 C310,260 340,260 360,280 C380,260 410,260 430,290 C450,270 480,270 500,290 L500,350 L50,350 Z" fill="white" fill-opacity="0.6"/>
</svg>
