<svg xmlns="http://www.w3.org/2000/svg" viewBox="0 0 800 600" fill="none">
  <path d="M400 100C250 100 150 200 100 300C50 400 50 500 100 550C150 600 250 600 400 600C550 600 650 600 700 550C750 500 750 400 700 300C650 200 550 100 400 100Z" fill="#0047AB" fill-opacity="0.1" stroke="#0047AB" stroke-width="2"/>
  <circle cx="400" cy="350" r="150" fill="#0047AB" fill-opacity="0.05" stroke="#0047AB" stroke-width="2"/>
  <circle cx="400" cy="350" r="100" fill="#0047AB" fill-opacity="0.05" stroke="#0047AB" stroke-width="2"/>
  <circle cx="400" cy="350" r="50" fill="#0047AB" fill-opacity="0.05" stroke="#0047AB" stroke-width="2"/>
  <line x1="250" y1="350" x2="550" y2="350" stroke="#0047AB" stroke-width="2"/>
  <line x1="400" y1="200" x2="400" y2="500" stroke="#0047AB" stroke-width="2"/>
  <circle cx="300" cy="300" r="20" fill="#FF6B00" fill-opacity="0.3" stroke="#FF6B00" stroke-width="2"/>
  <circle cx="500" cy="300" r="20" fill="#FF6B00" fill-opacity="0.3" stroke="#FF6B00" stroke-width="2"/>
  <circle cx="300" cy="400" r="20" fill="#FF6B00" fill-opacity="0.3" stroke="#FF6B00" stroke-width="2"/>
  <circle cx="500" cy="400" r="20" fill="#FF6B00" fill-opacity="0.3" stroke="#FF6B00" stroke-width="2"/>
  <rect x="350" y="250" width="100" height="50" rx="10" fill="#0047AB" fill-opacity="0.2" stroke="#0047AB" stroke-width="2"/>
  <rect x="350" y="400" width="100" height="50" rx="10" fill="#0047AB" fill-opacity="0.2" stroke="#0047AB" stroke-width="2"/>
</svg>
